<?xml version="1.0" encoding="UTF-8" standalone="no"?>
<svg
   xmlns:dc="http://purl.org/dc/elements/1.1/"
   xmlns:cc="http://creativecommons.org/ns#"
   xmlns:rdf="http://www.w3.org/1999/02/22-rdf-syntax-ns#"
   xmlns:svg="http://www.w3.org/2000/svg"
   xmlns="http://www.w3.org/2000/svg"
   xmlns:sodipodi="http://sodipodi.sourceforge.net/DTD/sodipodi-0.dtd"
   xmlns:inkscape="http://www.inkscape.org/namespaces/inkscape"
   width="67mm"
   height="33mm"
   viewBox="0 0 67 33"
   version="1.1"
   id="svg8"
   inkscape:version="1.0.1 (3bc2e813f5, 2020-09-07)"
   sodipodi:docname="signature.svg"
   inkscape:export-filename="/home/mark/cpsig.png"
   inkscape:export-xdpi="79.991043"
   inkscape:export-ydpi="79.991043">
  <defs
     id="defs2" />
  <sodipodi:namedview
     id="base"
     pagecolor="#ffffff"
     bordercolor="#666666"
     borderopacity="1.0"
     inkscape:pageopacity="0.0"
     inkscape:pageshadow="2"
     inkscape:zoom="0.8979798"
     inkscape:cx="262.10349"
     inkscape:cy="561.25984"
     inkscape:document-units="mm"
     inkscape:current-layer="layer1"
     inkscape:document-rotation="0"
     showgrid="false"
     inkscape:window-width="1530"
     inkscape:window-height="1205"
     inkscape:window-x="862"
     inkscape:window-y="100"
     inkscape:window-maximized="0" />
  <metadata
     id="metadata5">
    <rdf:RDF>
      <cc:Work
         rdf:about="">
        <dc:format>image/svg+xml</dc:format>
        <dc:type
           rdf:resource="http://purl.org/dc/dcmitype/StillImage" />
        <dc:title></dc:title>
      </cc:Work>
    </rdf:RDF>
  </metadata>
  <g
     inkscape:label="Layer 1"
     inkscape:groupmode="layer"
     id="layer1">
    <path
       style="font-variation-settings:normal;opacity:1;vector-effect:none;fill:#071019;fill-opacity:1;stroke:none;stroke-width:0.264999;stroke-linecap:butt;stroke-linejoin:miter;stroke-miterlimit:4;stroke-dasharray:none;stroke-dashoffset:0;stroke-opacity:1;stop-color:#000000;stop-opacity:1"
       id="path843"
       d="M 3.6679185,24.804273 C 4.5380839,24.235038 5.4805183,23.763336 6.2784146,23.09657 6.546316,22.872698 6.6434642,22.500295 6.7990333,22.187742 7.0437634,21.696059 7.2479405,21.185186 7.4780121,20.686476 8.5789878,18.29996 9.7466388,15.948341 10.919401,13.596563 c 1.064913,-2.088618 2.178711,-4.153972 3.358233,-6.180356 0.369984,-0.635622 1.148541,-1.974981 1.665403,-2.603128 0.139611,-0.16967 0.330965,-0.289101 0.496447,-0.433652 -0.75794,0.518864 -1.656018,0.876874 -2.273818,1.556591 -0.324522,0.357046 -0.258511,0.929921 -0.404249,1.389874 -0.251578,0.793988 -0.519397,1.582771 -0.787503,2.371332 -1.049616,3.087156 -2.141353,6.160447 -3.2163392,9.238826 -0.584396,1.98028 -1.421573,3.912825 -1.791024,5.955456 -0.034059,0.18831 -0.2639384,1.132282 0.173192,1.344811 0.177393,0.08625 0.394422,-0.0076 0.591633,-0.01143 1.009003,-0.609348 2.0530432,-1.164132 3.0270102,-1.828046 0.358255,-0.244207 0.647314,-0.577749 0.953157,-0.885065 1.190669,-1.196409 2.125869,-2.534934 3.024782,-3.953849 0.121367,-0.198231 0.226122,-0.407643 0.364099,-0.594693 0.06786,-0.092 0.165827,-0.157406 0.248741,-0.236112 -0.723126,0.430305 -1.466914,0.827643 -2.169378,1.29091 -0.0178,0.01175 0.03611,0.60089 0.03835,0.802492 0.01958,0.665858 0.142007,1.406604 0.984103,1.396365 0.252834,-0.0031 0.498662,-0.0841 0.747993,-0.126153 0.30189,-0.08719 0.603977,-0.173694 0.90567,-0.261559 1.32715,-0.386525 2.637052,-0.744273 4.00827,-0.949452 1.720292,-0.257414 2.630508,-0.29191 4.421818,-0.430777 1.014764,-0.03243 2.029018,-0.100472 3.044296,-0.0973 2.362689,0.0074 5.865336,0.216548 8.169293,0.393184 4.83276,0.370509 9.642919,0.943279 14.45274,1.531202 5.192429,0.692314 2.730328,0.354213 7.387069,1.008663 0,0 1.779315,-1.258184 1.779315,-1.258184 v 0 C 55.344115,21.46394 57.861816,21.761522 52.56568,21.133129 47.769322,20.564965 42.974426,19.972116 38.161817,19.554617 c -1.87048,-0.162267 -6.05001,-0.471816 -8.031507,-0.517038 -0.99446,-0.0227 -1.989256,0.02671 -2.983886,0.04007 -3.104727,0.185807 -6.210064,0.414925 -9.164214,1.47251 -0.185189,0.04613 -0.809952,0.249441 -1.083673,0.185195 -0.40073,-0.09406 -0.333579,-0.825696 -0.366105,-1.098447 -9.79e-4,-0.05195 -0.02883,-1.121614 -0.161393,-1.077682 -2.049976,0.679384 -2.209472,0.704845 -2.935005,2.013011 -0.870691,1.407755 -1.80542,2.721427 -3.00898,3.871497 -0.320276,0.306041 -1.3829242,0.644136 -1.0029702,0.871894 0.430586,0.258112 0.9017482,-0.441534 1.3526232,-0.662299 -0.134425,0.08738 -0.243103,0.255077 -0.403276,0.262136 -0.314695,0.01386 -0.269279,-0.608611 -0.203995,-1.085946 0.273596,-2.000419 1.058123,-3.900691 1.5929,-5.832644 0.927423,-2.737932 1.131039,-3.383978 2.140938,-6.171673 0.67115,-1.85262 1.406704,-3.681774 2.060493,-5.540592 0.179856,-0.511358 0.978862,-1.312157 0.491788,-1.550053 -0.738685,-0.360786 -1.590494,0.416676 -2.38574,0.625013 -0.794055,0.904117 -1.362632,1.976098 -1.949878,3.021124 -1.137195,2.02368 -2.2213122,4.077984 -3.2660242,6.150714 -1.1881386,2.387002 -2.3751422,4.774628 -3.5766617,7.154936 -0.2546527,0.504489 -0.487694,1.020747 -0.7684114,1.51121 -0.1780421,0.311071 -0.9636302,0.890434 -0.6052145,0.888762 0.6795691,-0.0032 1.2213479,-0.596328 1.8320218,-0.89449 0,0 -2.0677285,1.612445 -2.0677285,1.612445 z" />
  </g>
</svg>
